<svg xmlns="http://www.w3.org/2000/svg" xmlns:xlink="http://www.w3.org/1999/xlink" width="500" zoomAndPan="magnify" viewBox="0 0 375 374.999991" height="500" preserveAspectRatio="xMidYMid meet" version="1.2"><g id="38e921eadf"><path style=" stroke:none;fill-rule:nonzero;fill:#000000;fill-opacity:1;" d="M 202.289062 78.226562 C 213.785156 -4.890625 161.214844 -4.890625 172.714844 78.226562 C 138.183594 -4.890625 115.742188 2.378906 136.65625 89.9375 C 97.097656 15.890625 54.554688 46.839844 112.726562 107.3125 C 35.949219 60.378906 22.128906 79.46875 90.4375 137.996094 C 14.953125 101.382812 -1.285156 151.371094 81.304688 166.109375 C -8.40625 173.269531 -8.40625 196.875 81.304688 204.035156 C -1.285156 218.773438 14.953125 268.773438 90.4375 232.148438 C 22.128906 290.675781 35.949219 309.765625 112.726562 262.832031 C 54.632812 323.304688 97.097656 354.199219 136.65625 280.203125 C 115.742188 367.738281 138.183594 375.035156 172.714844 291.933594 C 161.214844 375.035156 213.785156 375.035156 202.289062 291.933594 C 236.820312 375.035156 259.261719 367.738281 238.347656 280.203125 C 277.890625 354.199219 320.421875 323.304688 262.261719 262.832031 C 339.054688 309.765625 352.929688 290.675781 284.550781 232.148438 C 360.035156 268.773438 376.289062 218.773438 293.683594 204.035156 C 383.40625 196.875 383.40625 173.269531 293.683594 166.109375 C 376.289062 151.371094 360.035156 101.382812 284.550781 137.996094 C 352.929688 79.46875 339.054688 60.378906 262.261719 107.3125 C 320.421875 46.839844 277.890625 15.890625 238.292969 89.9375 C 259.261719 2.378906 236.820312 -4.890625 202.289062 78.226562 Z M 202.289062 78.226562 "/></g></svg>